<?xml version="1.0" encoding="utf-8"?>
<!-- Generator: Adobe Illustrator 18.0.0, SVG Export Plug-In . SVG Version: 6.00 Build 0)  -->
<!DOCTYPE svg PUBLIC "-//W3C//DTD SVG 1.1//EN" "http://www.w3.org/Graphics/SVG/1.1/DTD/svg11.dtd">
<svg version="1.1" xmlns="http://www.w3.org/2000/svg" xmlns:xlink="http://www.w3.org/1999/xlink" x="0px" y="0px"
	 viewBox="0 0 370 331.5" enable-background="new 0 0 370 331.5" xml:space="preserve">
<g id="Layer_2">
	<circle fill="#BA6B4D" stroke="#FFFFFF" stroke-width="5" stroke-miterlimit="10" cx="-1359.5" cy="-313.8" r="198"/>
	<circle fill="none" stroke="#BA6B4D" stroke-width="5" stroke-miterlimit="10" cx="-870.5" cy="-302.8" r="198"/>
	<circle fill="#FFFFFF" cx="-1359.5" cy="-313.8" r="161"/>
	<circle fill="none" stroke="#BA6B4D" stroke-width="5" stroke-miterlimit="10" cx="-870.5" cy="-302.8" r="148.5"/>
	<circle fill="none" stroke="#662913" stroke-width="5" stroke-miterlimit="10" cx="-870.5" cy="-302.8" r="133.6"/>
	<circle fill="none" stroke="#BA6B4D" stroke-width="5" stroke-miterlimit="10" cx="-862.4" cy="626.3" r="198"/>
	<circle fill="none" stroke="#BA6B4D" stroke-width="5" stroke-miterlimit="10" cx="-862.4" cy="626.3" r="148.5"/>
	<circle fill="none" stroke="#662913" stroke-width="5" stroke-miterlimit="10" cx="-862.4" cy="626.3" r="133.6"/>
	<circle fill="none" stroke="#662913" stroke-width="5" stroke-miterlimit="10" cx="-1359.5" cy="-313.8" r="133.6"/>
	<circle fill="#BA6B4D" stroke="#FFFFFF" stroke-width="5" stroke-miterlimit="10" cx="-1373.8" cy="622.2" r="198"/>
	<circle fill="#FFFFFF" cx="-1373.8" cy="622.2" r="161"/>
	<circle fill="none" stroke="#662913" stroke-width="5" stroke-miterlimit="10" cx="-1373.8" cy="622.2" r="133.6"/>
</g>
<g id="Layer_1">
	<g>
		<path fill="#BA6B4D" d="M118.7,592.7c5.2,3.3,15.1,10.8,23.7,24.3c11.3,21.8,28.3,60.7,43.8,121.6c1.8-0.5,3.7-1.1,5.6-1.5
			c0.8-0.2,1.6-0.2,2.3,0c2.6-0.8,5.2-1.5,7.9-2.4c-20.7-47.8-31.4-84.4-37-109.4l0.1,0c-6.6-25.3-0.9-44,1.8-50.6
			c9.6-19.1,10.4-48.4,0.3-78.2c-15.3-44.9-49.7-73.8-76.8-64.6c-27.1,9.2-36.8,53.1-21.5,98C79.3,560.8,98.8,584.1,118.7,592.7z"/>
		<polygon fill="#FFFFFF" points="68.7,449 99.3,538.9 89.5,542.2 60,455.4 		"/>
		<polygon fill="#FFFFFF" points="85.7,434 119.1,532.2 109.3,535.5 76.1,438 		"/>
		<polygon fill="#FFFFFF" points="105.5,427.6 138.8,525.4 129.1,528.8 95.6,430.5 		"/>
		<polygon fill="#FFFFFF" points="129.6,433.6 158.6,518.7 148.8,522 117.8,430.9 		"/>
	</g>
	<g>
		<path fill="#BA6B4D" d="M212.7,729.9c-1.9-0.8-3.5-0.4-4.6,0.6c-3.4-0.9-6.8-1.7-10.3-2.4l47.9-131c-13.4-22.8-15.2-58.2-2.3-93.5
			c14.4-39.2,42.8-66.9,70.5-72.1c1.6-0.6,3.5-0.7,5.3,0c3.9,1.4,6,5.8,4.5,9.8L217.2,731.8C215.7,731.2,214.2,730.6,212.7,729.9z"
			/>
		<path fill="#FFFFFF" d="M286.5,451.1c0,0-60,46.2-43.7,120.6"/>
	</g>
	<polygon fill="none" stroke="#BA6B4D" stroke-width="5" stroke-miterlimit="10" points="-1443.2,93.4 -1187,265 -1356.5,265 
		-1532,265 	"/>
	<polygon fill="none" stroke="#BA6B4D" stroke-width="5" stroke-miterlimit="10" points="-1247.4,93.4 -1188.9,265 -1315.8,265 
		-1532,265 	"/>
	<circle fill="none" stroke="#BA6B4D" stroke-width="5" stroke-miterlimit="10" cx="-870.5" cy="-302.8" r="79.8"/>
	<path fill="#BA6B4D" stroke="#FFFFFF" stroke-width="5" stroke-miterlimit="10" d="M-1284.6-332.2c-32.5,0-60.8,10.9-75.4,27
		c-4.8,3.9-15.1,10.8-30.7,14.6c-25.2,3.9-69.8,7.5-136.5,1.7c-9.1-0.8-22.1-1.9-30.5-2.7c0,7.7,3,16.9,5.3,23.8
		c7.7-0.7,16.9-3.1,25.2-3.9c54.9-4.8,94.8-3.1,121.3-0.3l0,0.1c26.1,1.9,41.9,13.4,47.3,18c15,15.3,42.5,25.5,73.9,25.5
		c47.4,0,85.9-23.2,85.9-51.9S-1237.1-332.2-1284.6-332.2z"/>
	<path fill="#FFFFFF" stroke="#FFFFFF" stroke-width="15" stroke-miterlimit="10" d="M-795.6-328.3c-32.5,0-60.8,10.9-75.4,27
		c-4.8,3.9-15.1,10.8-30.7,14.6c-25.2,3.9-69.8,7.5-136.5,1.7c-9.1-0.8-22.1-1.9-30.5-2.7c0,7.7,3,16.9,5.3,23.8
		c7.7-0.7,16.9-3.1,25.2-3.9c54.9-4.8,94.8-3.1,121.3-0.3l0,0.1c26.1,1.9,41.9,13.4,47.3,18c15,15.3,42.5,25.5,73.9,25.5
		c47.4,0,85.9-23.2,85.9-51.9S-748.1-328.3-795.6-328.3z"/>
	<rect x="-1295.5" y="-311.4" fill="#FFFFFF" width="85.3" height="8.7"/>
	<rect x="-1295.5" y="-293.9" fill="#FFFFFF" width="95.8" height="8.7"/>
	<rect x="-1295.5" y="-276.4" fill="#FFFFFF" width="96.2" height="8.7"/>
	<polygon fill="#FFFFFF" points="-1211.9,-250.2 -1295.5,-250.2 -1295.5,-258.9 -1207.8,-258.9 	"/>
	<g>
		<path fill="#BA6B4D" d="M-795.6-222c-31.3,0-59.5-9.8-75.6-26.2c-5.5-4.6-20.7-15.5-45.8-17.3l-2.8-0.2l0-0.2
			c-33.7-3.4-74.2-3.3-118.1,0.5c-4.2,0.4-8.7,1.2-13.1,2c-4.3,0.8-8.3,1.5-12.1,1.9l-2,0.2l-0.6-1.9c-2.6-7.8-5.4-16.8-5.4-24.6
			v-2.7l2.7,0.3c6.4,0.6,16.7,1.5,30.4,2.7c23,2,45.1,3,65.7,3c26.2,0,49.7-1.6,70-4.7c15-3.7,24.8-10.3,29.4-14
			c15.6-17.1,45.1-27.7,77.1-27.7c23.4,0,45.4,5.5,62,15.6c17,10.3,26.4,24.1,26.4,38.9s-9.4,28.6-26.4,38.9
			C-750.1-227.5-772.2-222-795.6-222z M-913.8-270.2c25.1,2.5,40.4,13.6,46,18.3l0.2,0.1c15,15.3,42.6,24.7,72.1,24.7
			c46,0,83.4-22.2,83.4-49.4s-37.4-49.4-83.4-49.4c-30.7,0-58.9,10-73.5,26.2l-0.3,0.3c-4.9,3.9-15.5,11.1-31.6,15.1l-0.2,0
			c-20.6,3.2-44.4,4.8-70.9,4.8c-20.8,0-43-1-66.2-3c-11.9-1-21.2-1.9-27.6-2.5c0.5,6.2,2.7,13.3,4.4,18.3c3-0.4,6.3-1,9.7-1.6
			c4.5-0.8,9.1-1.7,13.5-2c45.4-3.9,87.3-4,121.8-0.3L-913.8-270.2L-913.8-270.2z"/>
		<polygon fill="#BA6B4D" points="-720.5,-298.3 -805.8,-298.3 -805.8,-307 -727.7,-307 		"/>
		<rect x="-805.8" y="-289.5" fill="#BA6B4D" width="95.8" height="8.7"/>
		<rect x="-805.8" y="-272" fill="#BA6B4D" width="96.2" height="8.7"/>
		<polygon fill="#BA6B4D" points="-722.3,-245.8 -805.8,-245.8 -805.8,-254.5 -718.2,-254.5 		"/>
	</g>
	<path fill="#BA6B4D" d="M-271.8,477.5c-0.3,31.2-10.4,59.4-27,75.4c-4.7,5.4-15.7,20.5-17.8,45.6l-0.2,2.8l-0.2,0
		c-3.8,33.6-4.1,74.2-0.7,118.1c0.3,4.2,1.1,8.7,1.8,13.1c0.7,4.3,1.4,8.3,1.7,12.1l0.2,2l-1.9,0.6c-7.9,2.5-16.9,5.2-24.7,5.1
		l-2.7,0l0.3-2.7c0.7-6.4,1.7-16.7,3-30.4c2.2-23,3.5-45.1,3.7-65.7c0.3-26.2-1-49.7-3.9-70.1c-3.5-15-10-24.9-13.6-29.6
		c-16.9-15.8-27.2-45.4-26.9-77.4c0.2-23.4,6-45.4,16.2-61.9c10.5-16.9,24.4-26.1,39.1-25.9c14.8,0.2,28.5,9.7,38.6,26.8
		C-276.9,432-271.6,454.1-271.8,477.5z M-321.3,595.2c2.8-25,14-40.3,18.8-45.8l0.2-0.2c15.4-14.8,25.2-42.3,25.5-71.9
		c0.5-46-21.3-83.6-48.5-83.9c-27.3-0.3-49.8,36.9-50.3,82.9c-0.3,30.7,9.4,59,25.4,73.8l0.3,0.3c3.9,4.9,11,15.6,14.7,31.8l0,0.2
		c2.9,20.6,4.3,44.5,4,70.9c-0.2,20.8-1.5,43-3.7,66.1c-1.2,11.9-2.1,21.1-2.7,27.6c6.2-0.5,13.3-2.6,18.4-4.2
		c-0.3-3-0.9-6.3-1.5-9.7c-0.8-4.5-1.6-9.1-1.9-13.6c-3.5-45.4-3.1-87.3,1-121.8L-321.3,595.2L-321.3,595.2z"/>
	<polygon fill="#BA6B4D" points="-347.4,401.6 -348.3,486.9 -357,486.8 -356.1,408.7 	"/>
	
		<rect x="-382.5" y="434.8" transform="matrix(1.066517e-002 -0.9999 0.9999 1.066517e-002 -770.1705 99.8913)" fill="#BA6B4D" width="95.8" height="8.7"/>
	
		<rect x="-365.2" y="434.8" transform="matrix(1.066517e-002 -0.9999 0.9999 1.066517e-002 -752.8665 117.4209)" fill="#BA6B4D" width="96.2" height="8.7"/>
	<polygon fill="#BA6B4D" points="-294.9,403.9 -295.8,487.5 -304.4,487.4 -303.5,399.7 	"/>
	<path fill="#BA6B4D" stroke="#FFFFFF" stroke-width="5" stroke-miterlimit="10" d="M-1164.3-361.2c-8.6,0.8-21.4,2.5-30.8,3.3
		c-54.7,4.7-94.6,3.1-121,0.3l0,0c-0.4,0-0.7-0.1-1.1-0.1c-2.4-0.3-4.8-0.6-7-0.8c-22.5-3.6-35.8-14-39.9-17.7
		c-0.4-0.4-0.9-0.8-1.3-1.2c0,0,0,0,0,0c-16.4-15.9-41.9-23.7-72.1-23.7c-47.4,0-85.9,23.2-85.9,51.9s38.5,51.9,85.9,51.9
		c33.4,0,62.4-11.6,76.6-28.4c5.2-3.9,14.5-9.5,27.7-12.9c24.8-4,70-7.9,138.2-2c9.6,0.8,26.7,2.3,35.5,3.1
		C-1160.1-344.9-1160.5-354.6-1164.3-361.2z"/>
	<path fill="#FFFFFF" stroke="#FFFFFF" stroke-width="15" stroke-miterlimit="10" d="M-681.3-361.2c-8.6,0.8-21.4,2.5-30.8,3.3
		c-54.7,4.7-94.6,3.1-121,0.3l0,0c-0.4,0-0.7-0.1-1.1-0.1c-2.4-0.3-4.8-0.6-7-0.8c-22.5-3.6-35.8-14-39.9-17.7
		c-0.4-0.4-0.9-0.8-1.3-1.2c0,0,0,0,0,0c-16.4-15.9-41.9-23.7-72.1-23.7c-47.4,0-85.9,23.2-85.9,51.9s38.5,51.9,85.9,51.9
		c33.4,0,62.4-11.6,76.6-28.4c5.2-3.9,14.5-9.5,27.7-12.9c24.8-4,70-7.9,138.2-2c9.6,0.8,26.7,2.3,35.5,3.1
		C-677.1-344.9-677.5-354.6-681.3-361.2z"/>
	<path fill="#BA6B4D" d="M-954.6-294.8c-23.4,0-45.4-5.5-62-15.6c-17-10.3-26.4-24.1-26.4-38.9s9.4-28.6,26.4-38.9
		c16.6-10,38.6-15.6,62-15.6c31.7,0,57.2,8.4,73.7,24.3l0.4,0.4c0.3,0.3,0.7,0.6,1,1c3.6,3.2,16.6,13.5,38.6,17
		c2.2,0.3,4.5,0.6,6.9,0.8l0.4,0c0.2,0,0.4,0,0.6,0.1l2.8,0.2l0,0.1c33.6,3.4,74.1,3.2,117.9-0.6c5.1-0.4,11.3-1.2,17.3-1.8
		c4.9-0.6,9.6-1.1,13.5-1.5l1.6-0.2l0.8,1.4c4.1,7,4.6,16.7,5,24.5l0.2,3.2l-2.9-0.3c-7.5-0.7-21.1-1.9-31-2.7l-4.5-0.4
		c-23-2-45.1-3-65.7-3c-33.5,0-57.5,2.7-71.7,5c-12.4,3.2-21.2,8.4-26.5,12.3C-891.6-306-921.6-294.8-954.6-294.8z M-954.6-398.7
		c-46,0-83.4,22.2-83.4,49.4s37.4,49.4,83.4,49.4c31.8,0,60.4-10.6,74.7-27.5l0.2-0.2l0.2-0.2c5.6-4.2,15.1-9.8,28.5-13.3l0.2,0
		c14.4-2.3,38.7-5,72.6-5c20.8,0,43,1,66.2,3l4.5,0.4c8.8,0.8,20.4,1.8,28.1,2.5c-0.4-6.1-1-13.1-3.4-18.3
		c-3.5,0.3-7.5,0.8-11.7,1.3c-6,0.7-12.3,1.4-17.5,1.8c-45.3,3.9-87.1,4-121.5,0.3l-2.7-0.3l0,0c-1.9-0.2-3.7-0.4-5.5-0.7
		c-22.9-3.6-36.5-14-41.3-18.3l-0.1-0.1c-0.3-0.3-0.6-0.6-0.9-0.9l-0.4-0.4C-899.9-390.7-924.2-398.7-954.6-398.7z"/>
	<path fill="#BA6B4D" d="M-495.4,541.4c-12.2-19.9-19.1-41.6-19.2-61c-0.1-19.9,6.7-35.1,19.3-42.8s29.3-7,46.9,2.1
		c17.2,8.9,33.5,24.8,45.7,44.7c16.6,27,22.8,53.2,17.9,75.6l-0.1,0.5c-0.1,0.5-0.2,0.9-0.3,1.4c-0.8,4.7-2.8,21.2,5.7,41.8
		c0.9,2,1.9,4.1,2.9,6.3l0.2,0.4c0.1,0.2,0.2,0.4,0.3,0.6l1.3,2.5l-0.1,0c14.7,30.4,36,64.9,62.2,100.2c3.1,4.1,6.9,9.1,10.6,13.8
		c3.1,3.9,6,7.6,8.3,10.7l1,1.3l-0.8,1.4c-3.9,7.1-11.8,12.6-18.3,17.1l-2.6,1.8l-1.3-2.6c-3.3-6.8-9.4-19-13.9-27.8l-2-4
		c-10.3-20.6-21-40-31.8-57.6c-17.5-28.6-32.4-47.6-41.8-58.5c-9.3-8.9-18.3-13.7-24.3-16.1C-452.9,589.2-478.1,569.5-495.4,541.4z
		 M-406.9,487c-24.1-39.2-62.5-59.5-85.8-45.2c-23.2,14.3-22.5,57.7,1.5,96.9c16.6,27.1,40.6,45.9,62.6,49.2l0.3,0l0.3,0.1
		c6.5,2.6,16.3,7.7,26.3,17.4l0.2,0.2c9.5,11.1,24.5,30.3,42.3,59.3c10.9,17.7,21.7,37.2,32,58l2,4c3.9,7.9,9.2,18.3,12.6,25.3
		c5-3.5,10.6-7.7,13.8-12.5c-2.1-2.8-4.6-6-7.2-9.3c-3.7-4.8-7.6-9.7-10.7-13.9c-27-36.5-49-72.1-63.8-103.4l-1.1-2.4l0,0
		c-0.8-1.7-1.6-3.4-2.3-5c-8.9-21.4-7.2-38.4-6-44.7l0-0.1c0.1-0.4,0.2-0.8,0.3-1.3l0.1-0.5C-385,537.8-391,513-406.9,487z"/>
	<path fill="#BA6B4D" d="M-1027.8-364.4c0,0,72.7-62,138.7,0"/>
	<path fill="#FFFFFF" d="M-1512.4-364.4c0,0,72.7-62,138.7,0"/>
	<path fill="#BA6B4D" d="M-1388.9,82.5c0,32.5,10.9,60.8,27,75.4c3.9,4.8,10.8,15.1,14.6,30.7c3.9,25.2,7.5,69.8,1.7,136.5
		c-0.8,9.1-1.9,22.1-2.7,30.5c7.7,0,16.9-3,23.8-5.3c-0.7-7.7-3.1-16.9-3.9-25.2c-4.8-54.9-3.1-94.8-0.3-121.3l0.1,0
		c1.9-26.1,13.4-41.9,18-47.3c15.3-15,25.5-42.5,25.5-73.9c0-47.4-23.2-85.9-51.9-85.9C-1365.7-3.4-1388.9,35-1388.9,82.5z"/>
	<polygon fill="#FFFFFF" points="-1359.5,5 -1359.5,93.4 -1368.2,93.4 -1368.2,8.1 	"/>
	<polygon fill="#FFFFFF" points="-1342,-3 -1342,93.4 -1350.7,93.4 -1350.7,-2.4 	"/>
	<polygon fill="#FFFFFF" points="-1324.5,-2.8 -1324.5,93.4 -1333.2,93.4 -1333.2,-3.2 	"/>
	<polygon fill="#FFFFFF" points="-1307,9.8 -1307,93.4 -1315.6,93.4 -1315.6,3.9 	"/>
	<path fill="#BA6B4D" d="M-1417.9-37.8c0.8,8.6,2.5,21.4,3.3,30.8c4.7,54.7,3.1,94.6,0.3,121l0,0c0,0.4-0.1,0.7-0.1,1.1
		c-0.3,2.4-0.6,4.8-0.8,7c-3.6,22.5-14,35.8-17.7,39.9c-0.4,0.4-0.8,0.9-1.2,1.3c0,0,0,0,0,0c-15.9,16.4-23.7,41.9-23.7,72.1
		c0,47.4,23.2,85.9,51.9,85.9c28.7,0,51.9-38.5,51.9-85.9c0-33.4-11.6-62.4-28.4-76.6c-3.9-5.2-9.5-14.5-12.9-27.7
		c-4-24.8-7.9-70-2-138.2c0.8-9.6,2.3-26.7,3.1-35.5C-1401.6-42-1411.3-41.6-1417.9-37.8z"/>
	<g>
		<path fill="#BA6B4D" d="M-909.4,196.6c0-32.5,10.9-60.8,27-75.4c3.9-4.8,10.8-15.1,14.6-30.7c3.9-25.2,7.5-69.8,1.7-136.5
			c-0.8-9.1-1.9-22.1-2.7-30.5c7.7,0,16.9,3,23.8,5.3c-0.7,7.7-3.1,16.9-3.9,25.2c-4.8,54.9-3.1,94.8-0.3,121.3l0.1,0
			c1.9,26.1,13.4,41.9,18,47.3c15.3,15,25.5,42.5,25.5,73.9c0,47.4-23.2,85.9-51.9,85.9S-909.4,244-909.4,196.6z"/>
		<polygon fill="#FFFFFF" points="-879.9,274 -879.9,185.6 -888.6,185.6 -888.6,271 		"/>
		<polygon fill="#FFFFFF" points="-862.4,282.1 -862.4,185.6 -871.1,185.6 -871.1,281.5 		"/>
		<polygon fill="#FFFFFF" points="-844.9,281.8 -844.9,185.6 -853.6,185.6 -853.6,282.2 		"/>
		<polygon fill="#FFFFFF" points="-827.4,269.2 -827.4,185.6 -836.1,185.6 -836.1,275.2 		"/>
	</g>
	<g>
		<path fill="#BA6B4D" d="M-268.3-398.8c-18.5,26.7-25.5,56.2-20.6,77.4c0.5,6.2,0.3,18.5-5.4,33.5c-11.1,22.9-33.5,61.7-76.1,113.3
			c-5.8,7.1-14.1,17.1-19.5,23.5c6.3,4.4,15.6,7.1,22.6,9.2c3.8-6.7,7-15.7,11.1-22.9c27.2-47.8,51.3-79.8,68.7-100l0.1,0.1
			c16.4-20.4,34.8-26.9,41.6-28.7c21.1-3.6,45.1-20.5,63-46.4c26.9-39,29.7-83.9,6.1-100.2C-200.4-456.3-241.4-437.9-268.3-398.8z"
			/>
		<polygon fill="#FFFFFF" points="-200.1,-445.9 -250.3,-373.1 -257.4,-378.1 -209,-448.3 		"/>
		<polygon fill="#FFFFFF" points="-181.1,-442.6 -235.9,-363.2 -243,-368.1 -188.6,-447 		"/>
		<polygon fill="#FFFFFF" points="-166.9,-432.4 -221.5,-353.2 -228.6,-358.2 -173.7,-437.7 		"/>
		<polygon fill="#FFFFFF" points="-159.6,-412.1 -207.1,-343.3 -214.2,-348.2 -163.4,-421.9 		"/>
	</g>
	<g>
		<path fill="#BA6B4D" d="M240.8-320.6c3.8,4.9,10.6,15.2,14.2,30.8c3.4,24.3,6.3,66.7,0.6,129.3c1.9,0.1,3.8,0.2,5.7,0.5
			c0.8,0.1,1.6,0.4,2.2,0.8c2.7,0.2,5.5,0.3,8.2,0.4c-3.5-51.9-1.3-90,1.8-115.5l0.1,0c2.3-26.1,13.9-41.7,18.6-47
			c15.5-14.8,26-42.1,26.5-73.6c0.6-47.4-22.1-86.2-50.8-86.6c-28.7-0.4-52.4,37.8-53.1,85.2C214.4-363.8,224.9-335.4,240.8-320.6z"
			/>
		<polygon fill="#FFFFFF" points="245.3,-473.3 244.1,-385 235.4,-385.1 236.6,-470.4 		"/>
		<polygon fill="#FFFFFF" points="262.9,-481.2 261.6,-384.7 253,-384.9 254.2,-480.7 		"/>
		<polygon fill="#FFFFFF" points="280.4,-480.7 279.1,-384.5 270.5,-384.6 271.8,-481.2 		"/>
		<polygon fill="#FFFFFF" points="297.8,-467.9 296.6,-384.3 288,-384.4 289.2,-473.9 		"/>
	</g>
	<path fill="#BA6B4D" d="M-938.3,316.8c0.8-8.6,2.5-21.4,3.3-30.8c4.7-54.7,3.1-94.6,0.3-121l0,0c0-0.4-0.1-0.7-0.1-1.1
		c-0.3-2.4-0.6-4.8-0.8-7c-3.6-22.5-14-35.8-17.7-39.9c-0.4-0.4-0.8-0.9-1.2-1.3c0,0,0,0,0,0c-15.9-16.4-23.7-41.9-23.7-72.1
		c0-47.4,23.2-85.9,51.9-85.9s51.9,38.5,51.9,85.9c0,33.4-11.6,62.4-28.4,76.6c-3.9,5.2-9.5,14.5-12.9,27.7c-4,24.8-7.9,70-2,138.2
		c0.8,9.6,2.3,26.7,3.1,35.5C-922.1,321.1-931.7,320.6-938.3,316.8z"/>
	<path fill="#FFFFFF" d="M-1424.4,302.9c0,0-62-72.7,0-138.7"/>
	<polygon fill="none" stroke="#BA6B4D" stroke-width="5" stroke-miterlimit="10" points="-858.6,99.2 -770.7,195.6 -682.8,292 
		-858.6,292 -1034.4,292 -946.5,195.6 	"/>
	<polygon fill="none" stroke="#BA6B4D" stroke-width="5" stroke-miterlimit="10" points="-858.6,172.5 -682.8,292 -858.6,292 
		-1034.4,292 	"/>
	<polygon fill="none" stroke="#BA6B4D" stroke-width="5" stroke-miterlimit="10" points="-326.3,-355.8 -238.4,-259.4 
		-150.5,-163.1 -326.3,-163.1 -502,-163.1 -414.1,-259.4 	"/>
	<polygon fill="none" stroke="#BA6B4D" stroke-width="5" stroke-miterlimit="10" points="-326.3,-282.5 -150.5,-163.1 
		-326.3,-163.1 -502,-163.1 	"/>
	<polygon fill="none" stroke="#BA6B4D" stroke-width="5" stroke-miterlimit="10" points="198.7,-311 286.6,-234.6 374.5,-158.2 
		198.7,-158.2 23,-158.2 110.9,-234.6 	"/>
	<path fill="#FFFFFF" d="M-944.2,113.9c0,0-62-72.7,0-138.7"/>
	<g>
		<path fill="#BA6B4D" d="M-257.4-155.2c-5.5-6.6-14.2-16.2-20.2-23.5c-35-42.3-56.3-76.1-69-99.5l0,0c-0.2-0.3-0.4-0.7-0.6-1
			c-1.2-2.2-2.2-4.2-3.3-6.2c-9.8-20.5-8.8-37.4-8.1-42.9c0.1-0.6,0.2-1.2,0.3-1.8c0,0,0-0.1,0-0.1c3.7-22.6-4.3-47.9-21.4-72.8
			c-26.9-39-67.9-57.5-91.5-41.2c-23.6,16.3-20.9,61.1,6,100.2c19,27.5,45,44.8,66.9,46.9c6.2,2.1,16,6.5,26.3,15.5
			c17.4,18.2,46.3,53.1,80.1,112.6c4.8,8.4,13.3,23.3,17.6,31C-268.4-142.4-260.7-148.3-257.4-155.2z"/>
		<path fill="#FFFFFF" d="M-448.2-442c0,0,92.3,24.6,78.7,114.1"/>
	</g>
	<path fill="#BA6B4D" d="M-375.3,42c-0.5,32.5,9.9,60.9,25.8,75.8c3.8,4.9,10.5,15.2,14.1,30.9c3.5,25.2,6.4,69.9-0.5,136.5
		c-0.9,9.1-2.3,22.1-3.2,30.4c7.7,0.1,16.9-2.7,23.9-4.9c-0.6-7.7-2.9-17-3.4-25.2c-3.9-54.9-1.6-94.9,1.7-121.3l0.1,0
		c2.3-26.1,14-41.7,18.7-47c15.5-14.7,26.2-42,26.7-73.5c0.8-47.4-21.9-86.3-50.5-86.7S-374.5-5.5-375.3,42z"/>
	<polygon fill="#FFFFFF" points="-344.6,-35 -346.1,53.4 -354.7,53.2 -353.4,-32.1 	"/>
	<polygon fill="#FFFFFF" points="-327,-42.8 -328.6,53.6 -337.2,53.5 -335.7,-42.3 	"/>
	<polygon fill="#FFFFFF" points="-309.5,-42.2 -311.1,53.9 -319.7,53.8 -318.2,-42.8 	"/>
	<polygon fill="#FFFFFF" points="-292.2,-29.4 -293.5,54.2 -302.2,54.1 -300.8,-35.4 	"/>
	<polygon fill="none" stroke="#BA6B4D" stroke-width="5" stroke-miterlimit="10" points="-327,129.5 -239.1,225.8 -151.2,322.2 
		-327,322.2 -502.8,322.2 -414.9,225.8 	"/>
	<path fill="#BA6B4D" d="M-274.8,301.3c-6.4-5.8-16.4-14.1-23.3-20.4c-40.5-37-66.4-67.4-82.2-88.8l0,0c-0.2-0.3-0.5-0.6-0.7-0.9
		c-1.5-2-2.8-3.9-4.1-5.7c-12.6-18.9-14-35.8-14.1-41.3c0-0.6,0-1.2,0-1.8c0,0,0-0.1,0-0.1c0.5-22.9-10.9-46.8-31.4-69.1
		c-32.1-34.9-75.3-47.4-96.4-28s-12.1,63.5,20,98.4c22.7,24.6,50.8,38.1,72.8,37.1c6.4,1.2,16.8,4.2,28.2,11.6
		c19.7,15.6,53.3,46.1,95.1,100.3c5.9,7.6,16.4,21.2,21.7,28.2C-283.9,315.5-277.1,308.6-274.8,301.3z"/>
	<path fill="#FFFFFF" d="M-504,44c0,0,94.8,11.4,94,102"/>
	<path fill="#BA6B4D" d="M-478.3,445.5c0,0,92.8,22.5,81.3,112.3"/>
	<g>
		<path fill="#BA6B4D" d="M-832.9,53c0-41.8,17.1-77.5,41.4-92c1.3-1.2,3.1-1.9,5-1.9c4.2,0,7.6,3.4,7.6,7.6v341.5
			c0.5,1.5,0.7,3.1,0.7,4.7c0,7.1-4.8,12.9-10.6,12.9c-5.9,0-10.6-5.8-10.6-12.9c0-1.9,0.4-3.8,1-5.4l-0.1-167.6
			C-819,123.3-832.9,90.6-832.9,53z"/>
		<path fill="#FFFFFF" d="M-810.4-11.2c0,0-36.5,61.7,0,125.9"/>
	</g>
	<g>
		<path fill="#BA6B4D" d="M-219.5,91.7c29.8-29.3,67.3-42.1,94.6-35c1.8,0.1,3.5,0.9,4.8,2.2c3,3,2.9,7.8-0.1,10.8l-243.4,239.6
			c-0.7,1.4-1.7,2.7-2.8,3.9c-5.1,5-12.5,5.6-16.6,1.5c-4.1-4.2-3.3-11.6,1.7-16.6c1.4-1.4,2.9-2.4,4.6-3.1l119.3-117.7
			C-259.9,150.9-246.3,118.1-219.5,91.7z"/>
		<path fill="#FFFFFF" d="M-158,62.7c0,0-69.6,17.3-89.7,88.3"/>
	</g>
	<g>
		<path fill="#BA6B4D" d="M130.7-168.7c2-0.1,3.4,0.8,4.2,2.1c3.5,0.3,7,0.6,10.5,1.2l-1.9-139.5c20.2-17,33.6-49.9,33.1-87.5
			c-0.6-41.8-18.2-77.2-42.7-91.4c-1.4-1.1-3.1-1.8-5-1.8c-4.2,0.1-7.6,3.5-7.5,7.7l4.4,309.4C127.4-168.5,129-168.6,130.7-168.7z"
			/>
		<path fill="#FFFFFF" d="M153.2-456.2c0,0,37.4,61.1,1.8,125.9"/>
	</g>
	<g>
		<path fill="none" stroke="#BA6B4D" stroke-width="5" stroke-miterlimit="10" d="M-240.9,503.9c24.6-33.8,59.5-52.5,87.6-50
			c1.8-0.1,3.6,0.3,5.1,1.4c3.4,2.5,4.2,7.2,1.7,10.6l-201.2,276c-0.5,1.5-1.2,2.9-2.2,4.3c-4.2,5.8-11.4,7.6-16.2,4.2
			c-4.7-3.5-5.2-10.9-1-16.7c1.1-1.6,2.5-2.8,4-3.8l98.6-135.5C-271.1,568.9-263,534.3-240.9,503.9z"/>
		<path fill="#BA6B4D" d="M-183.8,466.8c0,0-65.8,28.3-74.1,101.7"/>
	</g>
	<g>
		<path fill="#BA6B4D" stroke="#FFFFFF" stroke-width="2" stroke-miterlimit="10" d="M-1420.6,517.3c-0.5,32.5,9.9,60.9,25.8,75.8
			c3.8,4.9,10.5,15.2,14.1,30.9c3.5,25.2,6.4,69.9-0.5,136.5c-0.9,9.1-2.3,22.1-3.2,30.4c7.7,0.1,16.9-2.7,23.9-4.9
			c-0.6-7.7-2.9-17-3.4-25.2c-3.9-54.9-1.6-94.9,1.7-121.3l0.1,0c2.3-26.1,14-41.7,18.7-47c15.5-14.7,26.2-42,26.7-73.5
			c0.8-47.4-21.9-86.3-50.5-86.7S-1419.9,469.9-1420.6,517.3z"/>
		<polygon fill="#FFFFFF" stroke="#FFFFFF" stroke-width="2" stroke-miterlimit="10" points="-1390,441.2 -1391.4,528.7 
			-1400.1,528.6 -1398.8,449.2 		"/>
		<polygon fill="#FFFFFF" stroke="#FFFFFF" stroke-width="2" stroke-miterlimit="10" points="-1372.3,433.4 -1373.9,529 
			-1382.6,528.9 -1381.1,435.9 		"/>
		<polygon fill="#FFFFFF" stroke="#FFFFFF" stroke-width="2" stroke-miterlimit="10" points="-1354.9,436.3 -1356.4,529.3 
			-1365.1,529.1 -1363.5,433.4 		"/>
		<polygon fill="#FFFFFF" stroke="#FFFFFF" stroke-width="2" stroke-miterlimit="10" points="-1337.6,449 -1338.9,529.6 
			-1347.6,529.4 -1346.1,441.4 		"/>
	</g>
	<g>
		<path fill="#BA6B4D" stroke="#FFFFFF" stroke-width="2" stroke-miterlimit="10" d="M-1320.2,776.7c-6.4-5.8-16.4-14.1-23.3-20.4
			c-40.5-37-66.4-67.4-82.2-88.8l0,0c-0.2-0.3-0.5-0.6-0.7-0.9c-1.5-2-2.8-3.9-4.1-5.7c-12.6-18.9-14-35.8-14.1-41.3
			c0-0.6,0-1.2,0-1.8c0,0,0-0.1,0-0.1c0.5-22.9-10.9-46.8-31.4-69.1c-32.1-34.9-75.3-47.4-96.4-28c-21.1,19.4-12.1,63.5,20,98.4
			c22.7,24.6,50.8,38.1,72.8,37.1c6.4,1.2,16.8,4.2,28.2,11.6c19.7,15.6,53.3,46.1,95.1,100.3c5.9,7.6,16.4,21.2,21.7,28.2
			C-1329.2,790.8-1322.4,784-1320.2,776.7z"/>
		<path fill="#FFFFFF" stroke="#FFFFFF" stroke-width="2" stroke-miterlimit="10" d="M-1549.3,519.4c0,0,94.8,11.4,94,102"/>
	</g>
	<g>
		<path fill="#BA6B4D" stroke="#FFFFFF" stroke-width="2" stroke-miterlimit="10" d="M-1264.9,567c29.8-29.3,67.3-42.1,94.6-35
			c1.8,0.1,3.5,0.9,4.8,2.2c3,3,2.9,7.8-0.1,10.8l-243.4,239.6c-0.7,1.4-1.7,2.7-2.8,3.9c-5.1,5-12.5,5.6-16.6,1.5
			c-4.1-4.2-3.3-11.6,1.7-16.6c1.4-1.4,2.9-2.4,4.6-3.1l119.3-117.7C-1305.2,626.2-1291.7,593.4-1264.9,567z"/>
		<path fill="#FFFFFF" stroke="#FFFFFF" stroke-width="2" stroke-miterlimit="10" d="M-1203.4,538c0,0-69.6,17.3-89.7,88.3"/>
	</g>
	<g>
		<path fill="#BA6B4D" stroke="#FFFFFF" stroke-width="2" stroke-miterlimit="10" d="M-909.6,514.7c-0.5,32.5,9.9,60.9,25.8,75.8
			c3.8,4.9,10.5,15.2,14.1,30.9c3.5,25.2,6.4,69.9-0.5,136.5c-0.9,9.1-2.3,22.1-3.2,30.4c7.7,0.1,16.9-2.7,23.9-4.9
			c-0.6-7.7-2.9-17-3.4-25.2c-3.9-54.9-1.6-94.9,1.7-121.3l0.1,0c2.3-26.1,14-41.7,18.7-47c15.5-14.7,26.2-42,26.7-73.5
			c0.8-47.4-21.9-86.3-50.5-86.7C-884.9,429.1-908.8,467.2-909.6,514.7z"/>
		<polygon fill="#FFFFFF" stroke="#FFFFFF" stroke-width="2" stroke-miterlimit="10" points="-878.9,438.5 -880.3,526.1 -889,525.9 
			-887.7,446.5 		"/>
		<polygon fill="#FFFFFF" stroke="#FFFFFF" stroke-width="2" stroke-miterlimit="10" points="-861.3,430.8 -862.8,526.3 
			-871.5,526.2 -870,433.2 		"/>
		<polygon fill="#FFFFFF" stroke="#FFFFFF" stroke-width="2" stroke-miterlimit="10" points="-843.8,433.6 -845.3,526.6 -854,526.5 
			-852.4,430.8 		"/>
		<polygon fill="#FFFFFF" stroke="#FFFFFF" stroke-width="2" stroke-miterlimit="10" points="-826.5,446.4 -827.8,526.9 
			-836.5,526.8 -835,438.7 		"/>
	</g>
	<g>
		<path fill="#BA6B4D" stroke="#FFFFFF" stroke-width="2" stroke-miterlimit="10" d="M-809.1,774c-6.4-5.8-16.4-14.1-23.3-20.4
			c-40.5-37-66.4-67.4-82.2-88.8l0,0c-0.2-0.3-0.5-0.6-0.7-0.9c-1.5-2-2.8-3.9-4.1-5.7c-12.6-18.9-14-35.8-14.1-41.3
			c0-0.6,0-1.2,0-1.8c0,0,0-0.1,0-0.1c0.5-22.9-10.9-46.8-31.4-69.1c-32.1-34.9-75.3-47.4-96.4-28c-21.1,19.4-12.1,63.5,20,98.4
			c22.7,24.6,50.8,38.1,72.8,37.1c6.4,1.2,16.8,4.2,28.2,11.6c19.7,15.6,53.3,46.1,95.1,100.3c5.9,7.6,16.4,21.2,21.7,28.2
			C-818.2,788.2-811.4,781.3-809.1,774z"/>
		<path fill="#FFFFFF" stroke="#FFFFFF" stroke-width="2" stroke-miterlimit="10" d="M-1038.2,516.7c0,0,94.8,11.4,94,102"/>
	</g>
	<g>
		<path fill="#BA6B4D" stroke="#FFFFFF" stroke-width="2" stroke-miterlimit="10" d="M-753.8,564.4c29.8-29.3,67.3-42.1,94.6-35
			c1.8,0.1,3.5,0.9,4.8,2.2c3,3,2.9,7.8-0.1,10.8l-243.4,239.6c-0.7,1.4-1.7,2.7-2.8,3.9c-5.1,5-12.5,5.6-16.6,1.5
			c-4.1-4.2-3.3-11.6,1.7-16.6c1.4-1.4,2.9-2.4,4.6-3.1l119.3-117.7C-794.1,623.6-780.6,590.8-753.8,564.4z"/>
		<path fill="#FFFFFF" stroke="#FFFFFF" stroke-width="2" stroke-miterlimit="10" d="M-692.3,535.4c0,0-69.6,17.3-89.7,88.3"/>
	</g>
	<polygon fill="#FFFFFF" stroke="#BA6B4D" stroke-width="5" stroke-miterlimit="10" points="-327,202.7 -151.2,322.2 -327,322.2 
		-502.8,322.2 	"/>
	<polygon fill="none" stroke="#BA6B4D" stroke-width="5" stroke-miterlimit="10" points="-326.3,554.8 -238.4,651.1 -150.5,747.5 
		-326.3,747.5 -502,747.5 -414.1,651.1 	"/>
	<polygon fill="#FFFFFF" stroke="#BA6B4D" stroke-width="5" stroke-miterlimit="10" points="-326.3,628 -150.5,747.5 -326.3,747.5 
		-502,747.5 	"/>
	<polygon fill="#FFFFFF" stroke="#BA6B4D" stroke-width="5" stroke-miterlimit="10" points="198.7,-277.7 374.5,-158.2 
		198.7,-158.2 23,-158.2 	"/>
	<polygon fill="none" stroke="#BA6B4D" stroke-width="5" stroke-miterlimit="10" points="198.7,595.9 286.6,672.3 374.5,748.7 
		198.7,748.7 23,748.7 110.9,672.3 	"/>
	<polygon fill="#FFFFFF" stroke="#BA6B4D" stroke-width="5" stroke-miterlimit="10" points="198.7,629.2 374.5,748.7 198.7,748.7 
		23,748.7 	"/>
	<g>
		<path fill="#BA6B4D" d="M108.5,163.5c3.8,4.9,10.6,15.2,14.2,30.8c3.4,24.3,6.3,66.7,0.6,129.3c1.9,0.1,3.8,0.2,5.7,0.5
			c0.8,0.1,1.6,0.4,2.2,0.8c2.7,0.2,5.5,0.3,8.2,0.4c-3.5-51.9-1.3-90,1.8-115.5l0.1,0c2.3-26.1,13.9-41.7,18.6-47
			c15.5-14.8,26-42.1,26.5-73.6c0.6-47.4-22.1-86.2-50.8-86.6c-28.7-0.4-52.4,37.8-53.1,85.2C82,120.3,92.6,148.7,108.5,163.5z"/>
		<polygon fill="#FFFFFF" points="109.5,11.3 108.2,106.3 97.9,106.2 99.1,14.4 		"/>
		<polygon fill="#FFFFFF" points="130.5,2.9 129.1,106.6 118.8,106.5 120.1,3.5 		"/>
		<polygon fill="#FFFFFF" points="151.3,3.5 150,106.9 139.6,106.8 141,2.9 		"/>
		<polygon fill="#FFFFFF" points="172,17.3 170.8,107.2 160.5,107 161.8,10.8 		"/>
	</g>
	<polygon fill="none" stroke="#BA6B4D" stroke-width="5" stroke-miterlimit="10" points="185.2,173.1 273.1,249.5 361,325.9 
		185.2,325.9 9.5,325.9 97.4,249.5 	"/>
	<g>
		<path fill="#BA6B4D" d="M235.2,320.3c2-0.1,3.4,0.8,4.2,2.1c3.5,0.3,7,0.6,10.5,1.2L248,184.1c20.2-17,33.6-49.9,33.1-87.5
			c-0.6-41.8-18.2-77.2-42.7-91.4c-1.4-1.1-3.1-1.8-5-1.8c-4.2,0.1-7.6,3.5-7.5,7.7l4.4,309.4C231.9,320.4,233.5,320.4,235.2,320.3z
			"/>
		<path fill="#FFFFFF" d="M257.7,32.7c0,0,41.3,63.4,1.3,128.2"/>
	</g>
	<polygon fill="#FFFFFF" stroke="#BA6B4D" stroke-width="5" stroke-miterlimit="10" points="185.2,206.5 361,325.9 185.2,325.9 
		9.5,325.9 	"/>
</g>
<g id="Layer_3" display="none">
	<rect x="-1531.3" y="-90.1" display="inline" fill="none" width="543" height="71"/>
	
		<text transform="matrix(1 0 0 1 -1531.3322 -53.2668)" display="inline" fill="#662913" font-family="'SamoSansPro'" font-size="50" letter-spacing="5">EHES VAGYOK</text>
	<rect x="-1522" y="-132.4" display="inline" fill="none" width="76" height="51"/>
	
		<text transform="matrix(1 0 0 1 -1522.0083 -95.5369)" display="inline" fill="#662913" font-family="'SamoSansPro'" font-size="50" letter-spacing="5">,</text>
	<rect x="-1423.2" y="-35.3" display="inline" fill="none" width="171.5" height="40.5"/>
	
		<text transform="matrix(1 0 0 1 -1423.2229 -16.9161)" display="inline" stroke="#662913" stroke-miterlimit="10" font-family="'SamoSansPro-Hair'" font-size="25" letter-spacing="2">de nagyon</text>
</g>
<g id="Layer_4">
</g>
</svg>
